<svg xmlns="http://www.w3.org/2000/svg" version="1.1" xmlns:xlink="http://www.w3.org/1999/xlink" width="512" height="512" x="0" y="0" viewBox="0 0 176 176" style="enable-background:new 0 0 512 512" xml:space="preserve" class=""><g><g data-name="Layer 2"><g data-name="62.spotify"><circle cx="88" cy="88" r="88" fill="#12c64b" opacity="1" data-original="#12c64b" class=""></circle><g fill="#fff"><path d="M119.79 120.53a5.21 5.21 0 0 1-7.12 1.87c-13.69-8-29.5-9.28-40.36-9a100.22 100.22 0 0 0-20.93 2.76 5.21 5.21 0 0 1-2.76-10A108.5 108.5 0 0 1 71.7 103a102.33 102.33 0 0 1 22.24 1.61 75.11 75.11 0 0 1 24 8.76 5.2 5.2 0 0 1 1.85 7.16zM129.47 100.42a6.16 6.16 0 0 1-5.33 3.06 6.08 6.08 0 0 1-3.11-.85c-16.21-9.47-34.93-11-47.8-10.6a118.31 118.31 0 0 0-24.79 3.27 6.17 6.17 0 0 1-3.27-11.89 127.88 127.88 0 0 1 27.34-3.7 119.43 119.43 0 0 1 26.35 1.91A88.81 88.81 0 0 1 127.26 92a6.17 6.17 0 0 1 2.21 8.42zM142 78.39a7.55 7.55 0 0 1-10.35 2.71c-38.54-22.52-88.53-9.13-89-9a7.57 7.57 0 1 1-4-14.59A157.1 157.1 0 0 1 72.1 53a148.15 148.15 0 0 1 32.31 2.34A109.15 109.15 0 0 1 139.25 68 7.57 7.57 0 0 1 142 78.39z" fill="#ffffff" opacity="1" data-original="#ffffff" class=""></path></g></g></g></g></svg>